<?xml version="1.0" encoding="UTF-8" standalone="no"?><!DOCTYPE svg PUBLIC "-//W3C//DTD SVG 1.1//EN" "http://www.w3.org/Graphics/SVG/1.1/DTD/svg11.dtd"><svg width="100%" height="100%" viewBox="0 0 232 355" version="1.1" xmlns="http://www.w3.org/2000/svg" xmlns:xlink="http://www.w3.org/1999/xlink" xml:space="preserve" xmlns:serif="http://www.serif.com/" style="fill-rule:evenodd;clip-rule:evenodd;stroke-linecap:round;stroke-linejoin:round;stroke-miterlimit:10;"><g><path d="M9.131,310.567l208.059,0c7.83,0 14.18,-6.345 14.18,-14.173l0,-251.374l-208.066,0c-7.827,0 -14.173,6.35 -14.173,14.18l0,251.367Z" style="fill:none;stroke:#808080;stroke-width:0.75px;"/><path d="M65.824,37.72l0,13.31" style="fill:none;fill-rule:nonzero;stroke:#000;stroke-width:0.75px;"/><path d="M69.094,50.38l-3.27,3.27l-3.27,-3.27l6.54,-0Z"/><path d="M0.12,37.72l112.98,0l18.43,-36.85l-112.985,0l-18.425,36.85Z" style="fill:#ceba97;stroke:#000;stroke-width:0.24px;"/><path d="M65.824,256.93l0.264,0l0,12.65" style="fill:none;fill-rule:nonzero;stroke:#000;stroke-width:0.75px;"/><path d="M69.358,268.93l-3.27,3.266l-3.27,-3.266l6.54,0Z"/><path d="M65.824,300.661l-0.01,0l0,14.306" style="fill:none;fill-rule:nonzero;stroke:#000;stroke-width:0.75px;"/><path d="M69.084,314.314l-3.27,3.269l-3.27,-3.269l6.54,-0Z"/><rect x="30.381" y="317.584" width="70.866" height="36.85" style="fill:#ceba97;stroke:#000;stroke-width:0.24px;"/><path d="M66.088,125.61l-0,12.77" style="fill:none;fill-rule:nonzero;stroke:#000;stroke-width:0.75px;"/><path d="M69.358,137.72l-3.27,3.27l-3.27,-3.27l6.54,0Z"/><path d="M66.088,169.34l-0,12.77" style="fill:none;fill-rule:nonzero;stroke:#000;stroke-width:0.75px;"/><path d="M69.358,181.46l-3.27,3.27l-3.27,-3.27l6.54,0Z"/><rect x="30.655" y="53.524" width="70.866" height="28.346" style="fill:#e8dfcf;stroke:#000;stroke-width:0.24px;"/><path d="M113.19,192.28l17.44,0" style="fill:none;fill-rule:nonzero;stroke:#000;stroke-width:0.75px;"/><path d="M113.84,195.55l-3.27,-3.27l3.27,-3.27l0,6.54Z"/><path d="M129.98,189.01l3.27,3.27l-3.27,3.27l0,-6.54Z"/><path d="M17.924,125.61l82.156,0l14.17,-28.35l-82.153,0l-14.173,28.35Z" style="fill:#e8dfcf;stroke:#000;stroke-width:0.24px;"/><rect x="133.33" y="250.094" width="70.866" height="36.85" style="fill:#e8dfcf;stroke:#000;stroke-width:0.24px;"/><rect x="133.33" y="162.34" width="70.866" height="36.85" style="fill:#e8dfcf;stroke:#000;stroke-width:0.24px;"/><rect x="30.655" y="140.994" width="70.866" height="28.346" style="fill:#e8dfcf;stroke:#000;stroke-width:0.24px;"/><rect x="30.655" y="228.464" width="70.866" height="28.346" style="fill:#e8dfcf;stroke:#000;stroke-width:0.24px;"/><path d="M17.924,213.08l82.156,-0l14.17,-28.35l-82.153,0l-14.173,28.35Z" style="fill:#e8dfcf;stroke:#000;stroke-width:0.24px;"/><path d="M17.924,300.543l82.156,0l14.17,-28.347l-82.153,0l-14.173,28.347Z" style="fill:#e8dfcf;stroke:#000;stroke-width:0.24px;"/><g transform="matrix(14.3,0,0,14.3,79.7605,15.15)"></g><text x="52.55px" y="15.15px" style="font-family:'Calibri-Bold', 'Calibri', sans-serif;font-weight:700;font-size:14.3px;">Host</text><g transform="matrix(14.3,0,0,14.3,94.866,32)"></g><text x="38.05px" y="32px" style="font-family:'Calibri', sans-serif;font-size:14.3px;">Julia code</text><g transform="matrix(14.3,0,0,14.3,95.3821,332.5)"></g><text x="36.625px" y="332.5px" style="font-family:'Calibri', sans-serif;font-size:14.3px;">LLVM CPU</text><g transform="matrix(14.3,0,0,14.3,92.6418,349.325)"></g><text x="39.75px" y="349.325px" style="font-family:'Calibri', sans-serif;font-size:14.3px;">back-end</text><g transform="matrix(14.3,0,0,14.3,84.4895,72.08)"></g><text x="48.125px" y="72.08px" style="font-family:'Calibri', sans-serif;font-size:14.3px;">Parser</text><g transform="matrix(14.3,0,0,14.3,77.2403,116.23)"></g><text x="55.525px" y="116.23px" style="font-family:'Calibri', sans-serif;font-size:14.3px;">AST</text><g transform="matrix(14.3,0,0,14.3,196.74,264.88)"></g><text x="141.9px" y="264.88px" style="font-family:'Calibri', sans-serif;font-size:14.3px;">Low-level</text><g transform="matrix(14.3,0,0,14.3,164.371,281.7)"><path d="M0.457,-0.464c0.01,-0 0.016,0.002 0.02,0.006c0.004,0.005 0.005,0.011 0.005,0.02l0,0.426c0,0.002 -0,0.005 -0.002,0.006c-0.001,0.002 -0.003,0.004 -0.006,0.005c-0.003,0.001 -0.007,0.002 -0.013,0.003c-0.005,0.001 -0.011,0.001 -0.019,0.001c-0.008,-0 -0.014,-0 -0.02,-0.001c-0.005,-0.001 -0.009,-0.002 -0.012,-0.003c-0.003,-0.001 -0.005,-0.003 -0.007,-0.005c-0.001,-0.001 -0.002,-0.004 -0.002,-0.006l0,-0.385l-0.227,-0l0,0.245c0,0.03 0.005,0.053 0.014,0.068c0.009,0.016 0.025,0.023 0.048,0.023c0.007,0 0.014,-0 0.02,-0.002c0.006,-0.001 0.011,-0.003 0.015,-0.004c0.005,-0.002 0.009,-0.004 0.012,-0.005c0.003,-0.001 0.006,-0.002 0.009,-0.002c0.002,-0 0.003,0 0.005,0.001c0.001,0.001 0.002,0.002 0.003,0.005c0.001,0.002 0.002,0.005 0.002,0.009c0.001,0.004 0.001,0.009 0.001,0.015c0,0.009 -0,0.016 -0.002,0.022c-0.001,0.005 -0.003,0.009 -0.006,0.012c-0.002,0.003 -0.006,0.005 -0.011,0.008c-0.006,0.002 -0.011,0.004 -0.018,0.005c-0.007,0.002 -0.014,0.003 -0.021,0.004c-0.008,0.001 -0.015,0.001 -0.023,0.001c-0.023,0 -0.042,-0.003 -0.058,-0.009c-0.017,-0.006 -0.03,-0.015 -0.04,-0.027c-0.011,-0.012 -0.018,-0.028 -0.023,-0.046c-0.005,-0.019 -0.007,-0.041 -0.007,-0.067l-0,-0.256l-0.062,-0c-0.005,-0 -0.009,-0.003 -0.011,-0.008c-0.003,-0.005 -0.005,-0.014 -0.005,-0.026c0,-0.006 0.001,-0.011 0.001,-0.015c0.001,-0.005 0.002,-0.008 0.004,-0.011c0.001,-0.003 0.003,-0.005 0.005,-0.006c0.002,-0.001 0.004,-0.001 0.007,-0.001l0.061,-0l-0,-0.105c-0,-0.002 0,-0.004 0.001,-0.006c0.002,-0.002 0.004,-0.004 0.007,-0.005c0.003,-0.002 0.007,-0.003 0.012,-0.003c0.005,-0.001 0.012,-0.001 0.02,-0.001c0.008,-0 0.015,-0 0.02,0.001c0.005,0 0.009,0.001 0.012,0.003c0.003,0.001 0.005,0.003 0.006,0.005c0.002,0.002 0.002,0.004 0.002,0.006l0,0.105l0.283,-0Zm0.035,-0.136c-0,0.019 -0.004,0.032 -0.011,0.038c-0.007,0.007 -0.02,0.011 -0.04,0.011c-0.018,-0 -0.031,-0.004 -0.038,-0.01c-0.007,-0.007 -0.011,-0.02 -0.011,-0.038c0,-0.019 0.004,-0.032 0.011,-0.039c0.007,-0.007 0.02,-0.01 0.039,-0.01c0.019,0 0.032,0.003 0.039,0.01c0.007,0.007 0.011,0.019 0.011,0.038Z" style="fill-rule:nonzero;"/></g><g transform="matrix(14.3,0,0,14.3,164.371,281.7)"></g><g transform="matrix(14.3,0,0,14.3,169.099,281.7)"></g><g transform="matrix(14.3,0,0,14.3,189.354,281.7)"></g><text x="149.38px" y="281.7px" style="font-family:'Calibri', sans-serif;font-size:14.3px;">op<tspan x="172.338px " y="281.7px ">m</tspan>s</text><g transform="matrix(14.3,0,0,14.3,198.456,176.95)"></g><text x="140.6px" y="176.95px" style="font-family:'Calibri', sans-serif;font-size:14.3px;">High-level</text><g transform="matrix(14.3,0,0,14.3,164.371,193.77)"><path d="M0.457,-0.464c0.01,-0 0.016,0.002 0.02,0.006c0.004,0.005 0.005,0.011 0.005,0.02l0,0.426c0,0.002 -0,0.005 -0.002,0.006c-0.001,0.002 -0.003,0.004 -0.006,0.005c-0.003,0.001 -0.007,0.002 -0.013,0.003c-0.005,0.001 -0.011,0.001 -0.019,0.001c-0.008,-0 -0.014,-0 -0.02,-0.001c-0.005,-0.001 -0.009,-0.002 -0.012,-0.003c-0.003,-0.001 -0.005,-0.003 -0.007,-0.005c-0.001,-0.001 -0.002,-0.004 -0.002,-0.006l0,-0.385l-0.227,-0l0,0.245c0,0.03 0.005,0.053 0.014,0.068c0.009,0.016 0.025,0.023 0.048,0.023c0.007,0 0.014,-0 0.02,-0.002c0.006,-0.001 0.011,-0.003 0.015,-0.004c0.005,-0.002 0.009,-0.004 0.012,-0.005c0.003,-0.001 0.006,-0.002 0.009,-0.002c0.002,-0 0.003,0 0.005,0.001c0.001,0.001 0.002,0.002 0.003,0.005c0.001,0.002 0.002,0.005 0.002,0.009c0.001,0.004 0.001,0.009 0.001,0.015c0,0.009 -0,0.016 -0.002,0.022c-0.001,0.005 -0.003,0.009 -0.006,0.012c-0.002,0.003 -0.006,0.005 -0.011,0.008c-0.006,0.002 -0.011,0.004 -0.018,0.005c-0.007,0.002 -0.014,0.003 -0.021,0.004c-0.008,0.001 -0.015,0.001 -0.023,0.001c-0.023,0 -0.042,-0.003 -0.058,-0.009c-0.017,-0.006 -0.03,-0.015 -0.04,-0.027c-0.011,-0.012 -0.018,-0.028 -0.023,-0.046c-0.005,-0.019 -0.007,-0.041 -0.007,-0.067l-0,-0.256l-0.062,-0c-0.005,-0 -0.009,-0.003 -0.011,-0.008c-0.003,-0.005 -0.005,-0.014 -0.005,-0.026c0,-0.006 0.001,-0.011 0.001,-0.015c0.001,-0.005 0.002,-0.008 0.004,-0.011c0.001,-0.003 0.003,-0.005 0.005,-0.006c0.002,-0.001 0.004,-0.001 0.007,-0.001l0.061,-0l-0,-0.105c-0,-0.002 0,-0.004 0.001,-0.006c0.002,-0.002 0.004,-0.004 0.007,-0.005c0.003,-0.002 0.007,-0.003 0.012,-0.003c0.005,-0.001 0.012,-0.001 0.02,-0.001c0.008,-0 0.015,-0 0.02,0.001c0.005,0 0.009,0.001 0.012,0.003c0.003,0.001 0.005,0.003 0.006,0.005c0.002,0.002 0.002,0.004 0.002,0.006l0,0.105l0.283,-0Zm0.035,-0.136c-0,0.019 -0.004,0.032 -0.011,0.038c-0.007,0.007 -0.02,0.011 -0.04,0.011c-0.018,-0 -0.031,-0.004 -0.038,-0.01c-0.007,-0.007 -0.011,-0.02 -0.011,-0.038c0,-0.019 0.004,-0.032 0.011,-0.039c0.007,-0.007 0.02,-0.01 0.039,-0.01c0.019,0 0.032,0.003 0.039,0.01c0.007,0.007 0.011,0.019 0.011,0.038Z" style="fill-rule:nonzero;"/></g><g transform="matrix(14.3,0,0,14.3,164.371,193.77)"></g><g transform="matrix(14.3,0,0,14.3,169.099,193.77)"></g><g transform="matrix(14.3,0,0,14.3,189.354,193.77)"></g><text x="149.38px" y="193.77px" style="font-family:'Calibri', sans-serif;font-size:14.3px;">op<tspan x="172.338px " y="193.77px ">m</tspan>s</text><g transform="matrix(14.3,0,0,14.3,93.27,159.7)"></g><text x="40.05px" y="159.7px" style="font-family:'Calibri', sans-serif;font-size:14.3px;">Lowering</text><g transform="matrix(14.3,0,0,14.3,92.1845,247.35)"></g><text x="41.15px" y="247.35px" style="font-family:'Calibri', sans-serif;font-size:14.3px;">Codegen</text><g transform="matrix(14.3,0,0,14.3,86.6611,203.85)"></g><text x="46.575px" y="203.85px" style="font-family:'Calibri', sans-serif;font-size:14.3px;">Julia IR</text><g transform="matrix(14.3,0,0,14.3,89.1374,291.5)"></g><text x="43.2px" y="291.5px" style="font-family:'Calibri', sans-serif;font-size:14.3px;">LLVM IR</text><g transform="matrix(14.3,0,0,14.3,220.688,57.9)"></g><text x="140.9px" y="57.9px" style="font-family:'Calibri', sans-serif;font-size:14.3px;">Julia compiler</text><path d="M113.19,280.689l17.44,-0" style="fill:none;fill-rule:nonzero;stroke:#000;stroke-width:0.75px;"/><path d="M113.84,283.959l-3.27,-3.27l3.27,-3.27l0,6.54Z"/><path d="M129.98,277.419l3.27,3.27l-3.27,3.27l0,-6.54Z"/><path d="M66.088,81.87l-0,12.78" style="fill:none;fill-rule:nonzero;stroke:#000;stroke-width:0.75px;"/><path d="M69.358,93.99l-3.27,3.27l-3.27,-3.27l6.54,0Z"/><path d="M66.088,213.08l-0,12.77" style="fill:none;fill-rule:nonzero;stroke:#000;stroke-width:0.75px;"/><path d="M69.358,225.19l-3.27,3.27l-3.27,-3.27l6.54,0Z"/></g></svg>